<svg xmlns="http://www.w3.org/2000/svg" version="1.1" xmlns:xlink="http://www.w3.org/1999/xlink" xmlns:svgjs="http://svgjs.dev/svgjs" width="1440" height="560" preserveAspectRatio="none" viewBox="0 0 1440 560"><g mask="url(&quot;#SvgjsMask1000&quot;)" fill="none"><rect width="1440" height="560" x="0" y="0" fill="#0e2a47"></rect><path d="M69.739,498.673C88.143,497.505,100.448,481.455,108.932,465.082C116.606,450.272,118.723,433.396,111.305,418.456C102.94,401.61,88.543,386.554,69.739,386.152C50.4,385.739,34.663,399.867,24.98,416.612C15.284,433.38,11.593,453.666,20.868,470.67C30.504,488.336,49.656,499.947,69.739,498.673" fill="rgba(28, 83, 142, 0.4)" class="triangle-float2"></path><path d="M284.4841826259101 246.8146268473572L280.91289146631283 144.54622865409283 129.2959397562149 201.03736449012086z" fill="rgba(28, 83, 142, 0.4)" class="triangle-float1"></path><path d="M182.009,359.038C211.676,357.34,234.709,335.426,248.551,309.131C261.361,284.795,260.441,257.068,248.801,232.151C234.66,201.88,215.418,167.09,182.009,166.695C148.272,166.296,128.407,200.825,112.421,230.536C97.555,258.165,85.88,289.998,100.821,317.587C116.33,346.225,149.494,360.899,182.009,359.038" fill="rgba(28, 83, 142, 0.4)" class="triangle-float2"></path><path d="M402.945,270.72C458.4,273.599,521.714,270.429,550.938,223.211C581.136,174.419,562.494,111.799,530.985,63.843C502.736,20.85,454.374,-3.229,402.945,-2.027C353.619,-0.874,309.788,27.012,284.866,69.594C259.669,112.646,254.116,166.094,279.372,209.112C304.348,251.653,353.68,268.162,402.945,270.72" fill="rgba(28, 83, 142, 0.4)" class="triangle-float3"></path><path d="M68.29,157.122C101.514,157.498,128.098,132.528,144.284,103.511C159.997,75.342,164.379,41.4,148.5,13.325C132.394,-15.151,100.982,-32.071,68.29,-30.852C37.48,-29.704,12.682,-8.063,-2.192,18.943C-16.484,44.893,-18.244,75.433,-4.783,101.823C10.093,130.987,35.553,156.751,68.29,157.122" fill="rgba(28, 83, 142, 0.4)" class="triangle-float1"></path><path d="M132.0039278415594 9.083927058376435L149.96818607599545 136.90626618477359 277.7905252023926 118.94200795033751 259.82626696795654-8.880331176059624z" fill="rgba(28, 83, 142, 0.4)" class="triangle-float1"></path></g><defs><mask id="SvgjsMask1000"><rect width="1440" height="560" fill="#ffffff"></rect></mask><style>
                @keyframes float1 {
                    0%{transform: translate(0, 0)}
                    50%{transform: translate(-10px, 0)}
                    100%{transform: translate(0, 0)}
                }

                .triangle-float1 {
                    animation: float1 5s infinite;
                }

                @keyframes float2 {
                    0%{transform: translate(0, 0)}
                    50%{transform: translate(-5px, -5px)}
                    100%{transform: translate(0, 0)}
                }

                .triangle-float2 {
                    animation: float2 4s infinite;
                }

                @keyframes float3 {
                    0%{transform: translate(0, 0)}
                    50%{transform: translate(0, -10px)}
                    100%{transform: translate(0, 0)}
                }

                .triangle-float3 {
                    animation: float3 6s infinite;
                }
            </style></defs></svg>