<svg xmlns="http://www.w3.org/2000/svg" version="1.1" xmlns:xlink="http://www.w3.org/1999/xlink" xmlns:svgjs="http://svgjs.dev/svgjs" width="1440" height="560" preserveAspectRatio="none" viewBox="0 0 1440 560"><g mask="url(&quot;#SvgjsMask1000&quot;)" fill="none"><rect width="1440" height="560" x="0" y="0" fill="#1e3266"></rect><path d="M1464 560L0 560 L0 329.13Q57.68 266.81, 120 324.49Q160.81 245.3, 240 286.11Q337.6 263.71, 360 361.31Q402.31 283.62, 480 325.93Q526.33 300.25, 552 346.58Q596.97 319.55, 624 364.52Q662.63 283.15, 744 321.79Q787.2 293, 816 336.2Q866 314.2, 888 364.2Q889.77 293.98, 960 295.75Q1014.25 230, 1080 284.26Q1166.76 251.02, 1200 337.79Q1243.49 261.28, 1320 304.77Q1346.79 259.56, 1392 286.35Q1444.25 266.61, 1464 318.86z" fill="#182f5d"></path><path d="M1464 560L0 560 L0 408.46Q71.31 359.77, 120 431.09Q129.83 368.92, 192 378.75Q259.87 326.62, 312 394.49Q355 317.49, 432 360.48Q518.73 327.21, 552 413.94Q619.41 361.36, 672 428.77Q737.5 374.26, 792 439.76Q812.48 340.24, 912 360.71Q986.62 315.32, 1032 389.94Q1118.15 356.1, 1152 442.25Q1203.75 374, 1272 425.76Q1293.42 375.19, 1344 396.61Q1410.29 342.9, 1464 409.19z" fill="#25467d"></path><path d="M1560 560L0 560 L0 444Q36.5 408.5, 72 444.99Q137.15 438.14, 144 503.29Q180.03 419.32, 264 455.35Q342.06 413.41, 384 491.47Q390.93 426.4, 456 433.33Q522.74 380.06, 576 446.8Q653.71 404.51, 696 482.23Q720.62 434.85, 768 459.47Q796.87 416.34, 840 445.2Q912.68 397.88, 960 470.57Q1010.74 449.31, 1032 500.04Q1071.49 419.53, 1152 459.03Q1201.68 436.71, 1224 486.4Q1227.21 417.62, 1296 420.83Q1349.74 402.57, 1368 456.32Q1433.84 450.16, 1440 516Q1480.6 436.6, 1560 477.19z" fill="#356cb1"></path><path d="M1512 560L0 560 L0 517.07Q34.66 479.74, 72 514.4Q166.02 488.42, 192 582.44Q210.05 528.5, 264 546.55Q301.61 464.16, 384 501.77Q414.56 460.32, 456 490.88Q554.82 469.7, 576 568.52Q609.82 482.34, 696 516.16Q739.07 487.23, 768 530.3Q850.05 492.35, 888 574.4Q933.96 500.36, 1008 546.31Q1050.53 516.84, 1080 559.36Q1119.82 479.18, 1200 519.01Q1248.77 495.78, 1272 544.55Q1341.88 494.43, 1392 564.31Q1436.68 488.99, 1512 533.68z" fill="white"></path></g><defs><mask id="SvgjsMask1000"><rect width="1440" height="560" fill="#ffffff"></rect></mask></defs></svg>