<svg xmlns="http://www.w3.org/2000/svg" version="1.1" xmlns:xlink="http://www.w3.org/1999/xlink" xmlns:svgjs="http://svgjs.dev/svgjs" width="1440" height="560" preserveAspectRatio="none" viewBox="0 0 1440 560"><g mask="url(&quot;#SvgjsMask1000&quot;)" fill="none"><rect width="1440" height="560" x="0" y="0" fill="#0e2a47"></rect><circle r="5.76" cx="1031.91" cy="462.36" filter="url(#SvgjsFilter1001)" fill="rgba(51, 121, 194, 0.58)"></circle><circle r="6.79" cx="1029.6200000000001" cy="170.60999999999999" filter="url(#SvgjsFilter1001)" fill="rgba(51, 121, 194, 0.58)"></circle><circle r="7.595" cx="1016.905" cy="452.21500000000003" filter="url(#SvgjsFilter1001)" fill="rgba(51, 121, 194, 0.58)"></circle><circle r="5.96" cx="38.09" cy="282.4" filter="url(#SvgjsFilter1001)" fill="rgba(51, 121, 194, 0.58)"></circle><circle r="6.745" cx="579.665" cy="552.655" filter="url(#SvgjsFilter1001)" fill="rgba(51, 121, 194, 0.58)"></circle><circle r="9.18" cx="1429.8700000000001" cy="397.69" filter="url(#SvgjsFilter1001)" fill="rgba(51, 121, 194, 0.58)"></circle><circle r="9.21" cx="1209.23" cy="223.17000000000002" filter="url(#SvgjsFilter1001)" fill="rgba(51, 121, 194, 0.58)"></circle><circle r="8.545" cx="684.3149999999999" cy="205.505" filter="url(#SvgjsFilter1001)" fill="rgba(51, 121, 194, 0.58)"></circle><circle r="4.74" cx="804.61" cy="142.48000000000002" filter="url(#SvgjsFilter1001)" fill="rgba(51, 121, 194, 0.58)"></circle><circle r="9.31" cx="349.8" cy="211.42000000000002" filter="url(#SvgjsFilter1001)" fill="rgba(51, 121, 194, 0.58)"></circle><circle r="9.05" cx="977.4799999999999" cy="241.29000000000002" filter="url(#SvgjsFilter1001)" fill="rgba(51, 121, 194, 0.58)"></circle><circle r="7.97" cx="994" cy="204.06" filter="url(#SvgjsFilter1001)" fill="rgba(51, 121, 194, 0.58)"></circle><circle r="7.945" cx="485.265" cy="228.285" filter="url(#SvgjsFilter1001)" fill="rgba(51, 121, 194, 0.58)"></circle><circle r="5.945" cx="1034.495" cy="25.905" filter="url(#SvgjsFilter1001)" fill="rgba(51, 121, 194, 0.58)"></circle><circle r="8.45" cx="1209.3400000000001" cy="201.82999999999998" filter="url(#SvgjsFilter1001)" fill="rgba(51, 121, 194, 0.58)"></circle><circle r="9.24" cx="521.83" cy="295.43" filter="url(#SvgjsFilter1001)" fill="rgba(51, 121, 194, 0.58)"></circle><circle r="8.57" cx="1333.21" cy="533.37" filter="url(#SvgjsFilter1001)" fill="rgba(51, 121, 194, 0.58)"></circle><circle r="5.335" cx="1021.0450000000001" cy="110.815" filter="url(#SvgjsFilter1001)" fill="rgba(51, 121, 194, 0.58)"></circle><circle r="8.785" cx="279.295" cy="279.475" filter="url(#SvgjsFilter1001)" fill="rgba(51, 121, 194, 0.58)"></circle><circle r="7.41" cx="1239.5700000000002" cy="354.48" filter="url(#SvgjsFilter1001)" fill="rgba(51, 121, 194, 0.58)"></circle><path d="M494.7 334.3L542.5 311.6 556.4 316.1 562.5 348.1 551.3 358.1 498.4 353.8C497.8 353.9 497.8 353.9 497.1 354.1 495.9 354.3 494.8 355.2 494.5 357.2 494.8 359.1 495.7 360.2 497.7 360.5L544 364 526.7 379.1 506.2 377.7C506.2 377.7 505.6 377.9 505.6 377.9 504.3 378.1 503.2 379 502.9 381 502.5 382.4 504.2 384 506.2 384.3L519.5 385.6 506.5 396.6C505.4 397.4 505.1 399.4 506.1 401.2S509.6 402.5 511.4 401.5L523.7 390.7 522.9 403.9C522.7 405.9 524.3 407.5 526.3 407.8 527.5 407.6 529.3 406.6 529.6 404.6L530.9 384.1 548.9 369 545.3 415.3C545 417.3 546.6 418.9 548 419.3 549.9 418.9 551.7 418 551.9 415.9L555.6 363.1 567.3 353.1 597.4 363.7 600.2 378.7 570.8 422.8C569.8 424.3 570.2 426.2 571.7 427.2S575 427.8 576.1 426.3L601.9 387.5 606.3 410.8 595.1 427.3C594.1 428.8 594.5 430.7 596.1 432.3S599.5 433 600.5 431.5L608 419.6 611.2 436.6C611.6 438.5 613.7 439.4 615.6 439 617.5 438.6 618.5 437.1 618.2 435.3L614.9 418.3 626.1 425.9C627.8 427.6 629.6 427.2 630.5 425.1 631.6 423.6 631.2 421.7 629.7 420.7L613.2 409.5 608.8 386.2 647.1 412.8C648.6 413.8 651.1 413.4 652.1 411.9S652.8 408.5 651.3 407.5L607.1 377.4 604.3 362.3 628.9 341.3 642.9 346.5 665.7 394.3C666.7 396 668.7 396.3 670.6 396 672.4 395 672.6 393 672.3 391.1L652 349.3 673.6 356.9 682.3 375.5C683.3 377.2 685.3 377.5 687.2 377.2 688.4 376.3 689.3 374.2 688.3 372.4L682.7 360.4 698.8 365.8C700.1 366.2 701.9 365.2 702.9 363.7 703.2 361.7 702.2 360 700.8 359.6L684.8 354.2 697.3 347.9C698.4 347 699.3 344.9 698.5 343.7 698.1 341.9 696.7 341.5 694.8 341.8 694.8 341.8 694.2 342 694.2 342L675.7 350.7 654 343.1 695.8 322.8C697.5 321.8 698.5 320.3 697.6 318.5 696.6 316.7 695.2 316.4 693.9 316.6 693.3 316.7 693.3 316.7 693.3 316.7L645 340.2 631 335.1 624.9 303 636.2 293.7 689.6 297.2C691 297.6 692.6 296 693 294.6 693.3 292.6 691.7 291 689.7 290.7L643.4 287.1 660.7 272.1 681.2 273.4C683.2 273.7 684.9 272.7 684.6 270.8 684.8 268.8 683.2 267.2 681.8 266.8L668 266.1 680.9 255.2C682 253.7 682.2 251.7 681.2 250 680.5 249.4 679.1 249.1 677.9 249.3 677.2 249.4 677.2 249.4 676.7 250.2L663.8 261.1 664.5 247.3C664.7 245.3 663.2 244.3 661.8 243.9 661.2 244 661.2 244 660.6 244.1 659.3 244.4 658.2 245.2 657.8 246.6L656.5 267 639.1 282.1 642.7 235.8C642.4 233.9 641.4 232.1 639.5 232.5 638.7 232 638.7 232 638.1 232.1 636.8 232.3 635.8 233.8 635.4 235.2L631.9 288.7 620.7 298 590 287.5 587.3 273.1 617.3 228.9C618.3 227.4 617.8 224.9 616.3 223.9S612.3 223.3 611.3 224.8L585.5 263.6 581.2 241 592.2 223.9C593.3 222.4 592.9 220.5 591.4 219.5 589.9 218.5 588 218.8 587 220.3L579.4 231.6 576.1 214.6C575.9 213.3 574.3 211.7 572.4 212 570.5 212.4 569 214.6 569.2 215.9L572.5 232.9 561.2 225.2C560.5 224.7 559.7 224.2 559.1 224.3 557.8 224.6 557.3 225.3 556.8 226.1 555.8 227.6 556.2 229.5 557.7 230.5L574.2 242.3 578.6 264.9 540.3 238.4C539.5 237.8 538.9 238 537.6 238.2 537 238.3 536.4 238.4 535.9 239.2 534.8 240.7 535.3 243.2 536.8 244.2L580.4 274.4 583.1 288.8 559.1 309.7 544.5 305.3 521.6 256.9C520.8 255.7 519.3 254.7 518 255 517.4 255.1 517.4 255.1 517.5 255.7 515.6 256.1 514.7 258.2 515.7 260L536 301.7 513.8 294.2 505 275.7C504.2 274.5 502.8 274.2 501.5 274.4 501.5 274.4 500.9 274.5 500.9 274.5 499 274.9 498.1 277 499.1 278.8L505.4 291.3 489.4 285.8C488.6 285.3 488 285.4 487.4 285.6 486.1 285.8 485 286.7 485.1 287.3 484.2 289.4 485.2 291.2 486.7 292.2L502.7 297.6 490.7 303.2C488.9 304.2 488.1 306.3 489 308 489.9 309.2 492 310.1 493.2 309.2L511.7 300.5 533.3 308.1 491.6 328.4C489.8 329.4 489.6 331.4 489.9 333.3 490.8 334.4 492.9 335.3 494.7 334.3ZM568.7 343.1L564 318.5 563.3 314.8 566.1 312.3 584.5 296.4 588 293.8 591.5 295.1 614.5 303.1 618 304.3 618.7 308.1 623.4 332.6 624.1 336.4 621.3 338.9 602.8 354.8 600 357.3 595.9 356.1 572.9 348.1 569.4 346.8 568.7 343.1Z" fill="rgba(51, 121, 194, 0.58)"></path><path d="M1340.5 178.5L1365.6 156.9 1374.7 157.4 1383.7 175.7 1378.6 183.5 1346 189.7C1345.6 189.8 1345.6 189.8 1345.3 190 1344.5 190.4 1344 191.1 1344.2 192.3 1344.7 193.4 1345.4 193.9 1346.7 193.8L1375.2 188.3 1367.2 200.2 1354.6 202.8C1354.6 202.8 1354.3 203 1354.3 203 1353.6 203.3 1353 204 1353.2 205.3 1353.2 206.2 1354.4 206.9 1355.7 206.7L1363.9 205.4 1357.9 214.1C1357.4 214.8 1357.6 216.1 1358.4 217S1360.8 217.2 1361.7 216.3L1367.3 207.7 1369 215.8C1369.2 217.1 1370.4 217.8 1371.7 217.6 1372.4 217.3 1373.3 216.4 1373.1 215.1L1370.6 202.6 1378.9 190.5 1384.4 219C1384.5 220.2 1385.8 221 1386.7 221 1387.7 220.5 1388.6 219.6 1388.5 218.3L1382 185.9 1387.4 177.9 1407.3 179.3 1411.5 187.9 1401 219.3C1400.6 220.4 1401.2 221.5 1402.2 221.8S1404.4 221.7 1404.7 220.6L1413.9 193 1420.4 206.3 1416.4 218C1416 219.1 1416.5 220.2 1417.8 220.9S1419.9 220.7 1420.3 219.7L1422.9 211.3 1427.6 221C1428.2 222.1 1429.6 222.3 1430.7 221.7 1431.7 221.2 1432.1 220.1 1431.6 219.1L1426.8 209.4 1434.9 212.1C1436.1 212.8 1437.2 212.3 1437.4 210.9 1437.8 209.8 1437.2 208.7 1436.2 208.4L1424.4 204.3 1417.9 191 1445.3 200.8C1446.4 201.1 1447.9 200.4 1448.2 199.4S1448.1 197.2 1447 196.8L1415.4 186 1411.2 177.4 1422.6 160.7 1431.9 161.5 1453.5 186.5C1454.4 187.4 1455.7 187.3 1456.7 186.7 1457.6 185.9 1457.5 184.6 1457 183.5L1437.8 161.7 1452.1 162.7 1460.5 172.5C1461.3 173.4 1462.6 173.2 1463.7 172.7 1464.2 172 1464.4 170.5 1463.5 169.6L1458.2 163.3 1468.8 164C1469.7 164 1470.6 163.1 1470.9 162 1470.8 160.7 1469.9 159.8 1469 159.8L1458.4 159.2 1464.9 153.4C1465.5 152.7 1465.7 151.2 1464.9 150.7 1464.4 149.6 1463.5 149.6 1462.4 150.1 1462.4 150.1 1462.1 150.3 1462.1 150.3L1452.4 158.6 1438.1 157.6 1459.9 138.5C1460.8 137.6 1461.1 136.5 1460.3 135.6 1459.4 134.7 1458.5 134.7 1457.8 135 1457.4 135.2 1457.4 135.2 1457.4 135.2L1432.2 157.4 1422.9 156.6 1413.9 138.2 1419.2 130.8 1452 124.1C1452.8 124.1 1453.6 122.8 1453.6 122 1453.4 120.7 1452.2 120 1450.9 120.1L1422.4 125.6 1430.4 113.7 1442.9 111.1C1444.2 111 1445.1 110.1 1444.6 109 1444.4 107.7 1443.2 107 1442.3 107L1433.8 108.9 1439.8 100.2C1440.2 99.1 1440 97.9 1439.1 97 1438.6 96.8 1437.7 96.8 1437 97.1 1436.6 97.3 1436.6 97.3 1436.5 97.8L1430.5 106.5 1428.6 98.1C1428.4 96.9 1427.3 96.5 1426.4 96.5 1426.1 96.7 1426.1 96.7 1425.7 96.8 1425 97.2 1424.5 97.9 1424.5 98.8L1427 111.3 1419 123.2 1413.6 94.8C1413.1 93.7 1412.2 92.8 1411.1 93.3 1410.6 93.1 1410.6 93.1 1410.2 93.3 1409.5 93.6 1409.1 94.7 1409.1 95.6L1415.8 128.4 1410.5 135.9 1390.3 134.6 1386.3 126.3 1397.1 94.8C1397.5 93.7 1396.8 92.3 1395.7 91.9S1393.2 92.2 1392.8 93.3L1383.6 121 1377.3 108 1381.2 95.9C1381.6 94.8 1381 93.7 1380 93.4 1378.9 93 1377.8 93.5 1377.4 94.6L1374.7 102.6 1369.9 92.9C1369.6 92.2 1368.4 91.5 1367.3 92 1366.2 92.5 1365.6 94.1 1366 94.9L1370.7 104.6 1362.7 101.8C1362.2 101.6 1361.6 101.4 1361.3 101.6 1360.6 102 1360.4 102.5 1360.2 103 1359.8 104.1 1360.4 105.2 1361.4 105.5L1373.4 109.9 1379.7 122.9 1352.2 113.2C1351.7 113 1351.3 113.1 1350.6 113.5 1350.3 113.7 1349.9 113.8 1349.7 114.4 1349.3 115.5 1350.1 116.9 1351.1 117.3L1382.3 128.3 1386.4 136.5 1375.3 153.1 1365.8 152.8 1344.1 127.4C1343.3 126.8 1342.3 126.5 1341.6 126.8 1341.2 127 1341.2 127 1341.4 127.4 1340.3 127.9 1340.1 129.3 1341 130.2L1360.1 152 1345.4 151.2 1337.1 141.5C1336.4 140.9 1335.5 140.9 1334.8 141.3 1334.8 141.3 1334.4 141.4 1334.4 141.4 1333.4 142 1333.2 143.4 1334.1 144.3L1339.9 150.8 1329.4 150.2C1328.8 150 1328.5 150.1 1328.1 150.3 1327.4 150.7 1326.8 151.4 1327 151.7 1326.8 153.2 1327.7 154.1 1328.8 154.4L1339.3 155.1 1333 160.4C1332.1 161.3 1331.9 162.7 1332.8 163.6 1333.5 164.1 1334.9 164.3 1335.5 163.6L1345.2 155.3 1359.5 156.3 1337.7 175.5C1336.8 176.3 1337 177.6 1337.5 178.7 1338.2 179.2 1339.6 179.4 1340.5 178.5ZM1386.6 171.6L1379.7 157.6 1378.7 155.4 1379.9 153.5 1388.5 140.9 1390.1 138.7 1392.4 138.9 1407.6 140 1409.9 140.2 1411 142.3 1417.8 156.3 1418.9 158.5 1417.6 160.4 1409.1 173.1 1407.8 175 1405.2 175 1390 174 1387.6 173.8 1386.6 171.6Z" fill="rgba(51, 121, 194, 0.58)"></path><path d="M1382.4 395.6L1362.3 396.6 1368 384.4C1368.7 383.2 1368.2 381.2 1366.6 380 1364.8 379.6 1362.8 380.1 1362.1 381.4L1354.3 397.4 1335.7 398.2 1351.8 365.9C1352.7 363.8 1352.2 361.9 1350.4 361.5 1348.8 360.3 1346.9 360.8 1346 362.9L1328.2 398.6 1311.4 399.8 1289.7 367.3 1296.1 353.8 1338.5 351.7C1339.1 351.4 1339.6 351 1340.1 350.7 1340.7 350.3 1341.4 349.1 1341.6 348.2 1341.6 345.9 1340 344.6 1338 345.2L1299.3 347.1 1307.7 330.8 1327.4 329.2C1327.7 329.7 1328.3 329.4 1328.8 329 1329.8 328.3 1330.6 327.1 1330.4 325.6 1330.2 324.2 1328.6 323 1326.8 322.6L1310.9 324 1321 303.4C1321.7 302.2 1321.2 300.2 1319.6 299 1317.8 298.6 1315.8 299.2 1315.1 300.4L1305.7 319.8 1298.3 308.6C1297.2 307 1294.9 307 1293.8 307.7 1292.2 308.7 1291.3 310.9 1292.4 312.5L1302 326.9 1293.6 343.2 1273.8 313.4C1272.7 311.8 1270.9 311.4 1269.3 312.5 1267.7 313.5 1267.4 315.3 1268.4 316.9L1290.4 349.9 1283.9 364.3 1244.6 366.6 1236.5 354.3 1254.4 317.8C1255.7 316.2 1254.8 313.7 1253 313.3 1251.4 312.1 1249.8 313.2 1248.6 314.8L1232.2 347.9 1221.9 332.5 1230.3 316.2C1231 314.9 1230.1 312.4 1228.9 311.7S1225.1 311.9 1223.9 313.5L1217.7 326.1 1205.3 307.5C1204.2 305.9 1201.9 305.9 1200.3 306.9 1199.2 307.6 1198.3 309.8 1199.4 311.4L1211.8 330 1197.3 331.2C1195.8 331.4 1194.2 332.5 1194.2 334.8 1194.4 336.2 1196.4 338 1197.8 337.8L1216.1 336.4 1226.4 351.8 1189.4 354.1C1187.5 354.7 1185.9 355.7 1185.9 358 1186.1 359.5 1188 361.2 1189.4 361.1L1230.6 358.2 1238.8 370.5 1221.5 405.8 1205.7 406.3 1183.7 373.3C1182.7 371.7 1180.9 371.3 1179.3 372.4 1177.7 373.5 1176.8 375.6 1177.9 377.2L1197.7 407 1179.5 408.4 1169.9 394.1C1168.8 392.5 1167 392.1 1165.4 393.2 1163.8 394.2 1163.5 396 1164.6 397.6L1172 408.8 1150.5 410C1149.1 410.2 1147.3 412.2 1147.5 413.6 1148 415.5 1149.1 417.1 1151.1 416.6L1173.4 415.5 1166.5 429.4C1166.1 431.2 1166.7 433.1 1167.9 433.8 1169.2 434.5 1170.6 434.4 1171.6 433.6 1171.6 433.6 1172.2 433.3 1172.3 432.4L1181.4 414.8 1199.7 413.4 1183 448.4C1181.7 450 1182.3 451.9 1184.4 452.8 1185.3 453 1186.2 453.2 1187.2 452.5 1187.8 452.1 1188.3 451.8 1188.8 451.4L1207.1 413.1 1222.1 412.4 1243.7 444.9 1236.1 460 1196.3 462.6C1194 462.6 1192.7 464.2 1193.3 466.1 1192.9 467.9 1194.5 469.2 1196.8 469.2L1232.9 466.7 1224.9 483.6 1207.1 484.6C1205.7 484.8 1204.4 486.4 1204.1 488.2 1204.6 490.1 1205.7 491.7 1207.6 491.2L1221.1 490.7 1212.4 508.8C1211.2 510.4 1212.2 511.9 1213.8 513.2 1214.7 513.4 1216.1 513.2 1217.2 512.5 1217.2 512.5 1217.7 512.1 1218.3 511.8L1227.7 492.4 1236.6 505.7C1237.3 506.8 1239.4 507.7 1241 506.6 1242.6 505.6 1242.6 503.3 1241.9 502.2L1230.9 485.7 1238.9 468.8 1260.5 501.3C1261.6 502.9 1263.9 502.9 1265.5 501.9S1267.5 499 1266.4 497.4L1242.6 461.7 1249.6 447.9 1288.8 445.6 1298 459.5 1279.5 496.4C1279.2 498.1 1279.7 500.1 1281.3 501.3 1282.2 501.5 1283.6 501.3 1284.7 500.6 1285.2 500.3 1285.7 499.9 1285.9 499L1302.3 465.8 1312.6 481.3 1304.6 498.2C1303.8 499.4 1304.4 501.3 1306 502.6 1307.7 502.9 1309.7 502.4 1310.4 501.2L1316.8 487.7 1328.2 504.7C1328.9 505.8 1331.5 506.3 1332.6 505.6 1334.2 504.6 1334.7 501.9 1334 500.8L1322.7 483.8 1337 483.4C1337.6 483.1 1338.1 482.7 1338.6 482.4 1339.7 481.7 1340.4 480.4 1340.6 479.5 1340.1 477.6 1338.5 476.3 1336.7 476L1318.4 477.4 1308.1 461.9 1345 459.7C1347.4 459.7 1348.6 458.1 1348.4 456.6 1348.4 454.3 1346.8 453.1 1345 452.7L1303.9 455.6 1294.6 441.7 1311.9 406.4 1327.3 405.3 1351.1 441C1352.2 442.6 1353.9 443 1355.5 441.9 1357.1 440.8 1357.5 439.1 1356.4 437.5L1334.8 405 1353.4 404.1 1364.4 420.6C1365.1 421.7 1367.8 422.2 1369.4 421.1 1371 420.1 1371 417.8 1370.3 416.7L1361.4 403.4 1382.9 402.2C1383.4 401.8 1383.4 401.8 1383.9 401.5 1385 400.7 1385.7 399.5 1385.9 398.6 1385.4 396.7 1383.8 395.4 1382.4 395.6ZM1290.4 435.3L1288.3 439 1284.5 439.2 1252.8 441.1 1249 441.3 1246.9 438.1 1229.5 412 1227.4 408.8 1229 405.5 1243 376.9 1244.6 373.5 1248.9 373 1280.1 371.4 1284.4 370.9 1286.5 374.1 1303.9 400.2 1306 403.4 1303.9 407.1 1290.4 435.3Z" fill="rgba(51, 121, 194, 0.58)"></path><path d="M377.5 466.3L367.6 456.4 375.7 453.9C376.6 453.7 377.2 452.6 377.1 451.4 376.6 450.4 375.5 449.7 374.5 450.3L364.3 453.1 356.3 445.7 377.5 439.9C378.5 439.3 379.2 438.3 379 437.4 378.5 436 377.4 435.3 376.5 435.9L353 442.4 341.1 430.7 360 427.7 344.8 416 360.8 411.4 378.4 428.2C378.3 428.6 378.7 428.7 379.1 428.7 379.9 428.9 380.8 428.8 381.3 428.1 381.9 427.4 381.8 426.1 381.2 425.2L365.3 410 375.8 407.3 383.5 414.6C383.8 415.1 384.2 415.2 384.6 415.3 384.9 415.4 385.8 415.2 386.4 414.5 387 413.8 386.9 412.6 386.2 412L380.3 406 393.7 401.9C395 401.8 395.2 400.6 395.2 399.4 395 398.5 393.9 397.8 392.5 398.3L379.2 402 381.3 393.8C381.6 392.7 380.6 391.6 379.8 391.4 378.7 391.1 377.7 391.7 377.4 392.9L374.8 403.3 364.2 406 369.5 385.1C369.8 383.9 369.2 382.9 368 382.7 367.2 382.5 365.9 382.9 365.6 384.1L359.7 407.4 343.7 412 350.2 394.3 332.8 401.4 336.9 385.1 360 378.6C361.3 378.1 361.6 376.9 361.4 376 361.2 375.2 360.2 374.5 358.9 374.6L337.9 380.9 340.6 370.4 350.9 367.2C352.1 367.1 352.8 366 352.3 364.7 352.1 363.8 351.1 363.1 349.7 363.6L341.7 365.7 345.2 352.2C345.4 351 344.9 350 343.7 349.7S341.6 350 341.3 351.2L337.9 364.8 331.9 359.1C330.9 358.1 329.6 358.2 329 358.8 328 359.8 328.1 361.1 329.1 361.7L336.7 369.4 334.1 379.9 318.6 364.4C317.5 363.8 316.2 363.9 315.6 364.5 314.6 365.5 314.7 366.8 315.7 367.5L333 384.2 328.9 400.5 316.9 385.9 314.2 404.6 302.3 392.9 308.2 369.7C308.5 368.5 307.5 367.4 306.7 367.2 305.6 367 304.6 367.5 304.3 368.7L298.9 390 291 382.3 293.6 371.8C293.9 370.6 293.3 369.7 292.2 369.4 291.4 369.2 290 369.7 289.7 370.8L287.7 379 277.7 369.4C276.7 368.4 275.5 368.5 274.8 369.5 274.2 370.2 273.9 371.4 275 372.1L284.9 382 276.8 384.5C275.9 384.7 275.3 385.7 275.5 386.6 275.6 387.5 276.3 388.1 276.7 388.2 277.1 388.3 277.5 388.4 278 388.1L288.2 385.3 296.2 392.7 275 398.4C274 399 273.3 400.1 273.5 401 273.7 401.8 274.4 402.4 275.1 402.6 275.5 402.7 275.5 402.7 276 402.4L299.5 396 311.4 407.6 292.5 410.7 307.7 422.4 291.7 427 274.1 410.2C273.4 409.6 272.2 409.3 271.2 410.3 270.6 411 270.7 412.2 271.2 413.2L287.2 428.3 276.7 431 269 423.8C268.4 422.8 267.2 422.9 266.1 423.9 265.5 424.5 265.6 425.8 266.2 426.8L272.2 432.4 258.8 436.5C257.5 436.5 257.2 437.7 257.3 439 257.6 439.5 258.3 440 258.7 440.1 259.1 440.2 259.5 440.3 260 440L273.3 436.4 271.2 444.5C270.9 445.7 271.9 446.8 272.7 446.9L272.7 446.9C273.8 447.2 274.8 446.7 275.1 445.5L277.7 435 288.3 432.3 283 453.3C282.7 454.4 283.3 455.4 284.5 455.7S286.6 455.4 286.9 454.2L292.8 431 308.8 426.3 302.3 444.1 319.7 436.9 315.6 453.2 292.5 459.8C291.2 460.3 290.9 461.4 291.1 462.3 291.3 463.2 292.3 463.9 293.6 463.8L314.5 457.9 311.9 468 301.6 471.1C300.4 471.2 299.7 472.3 300.2 473.7 300.4 474.5 301.4 475.2 302.7 475.1L310.8 472.6 307.3 486.2C307 487.4 307.6 488.3 308.8 488.6S310.9 488.3 311.2 487.2L314.6 473.6 320.6 479.2C320.9 479.7 321.3 479.8 321.7 479.9 322.5 480.1 323 479.8 323.5 479.5 324.5 478.5 324.4 477.3 323.4 476.6L315.8 468.9 318.4 458.5 333.9 473.9C334.3 474 334.7 474.1 335.1 474.2 335.9 474.4 336.4 474.1 336.8 473.8 337.9 472.8 337.8 471.6 336.8 470.9L319.5 454.2 323.6 437.9 335.6 452.5 338.3 433.7 350.2 445.4 344.3 468.7C344 469.8 345 470.9 345.8 471.1 346.9 471.4 347.9 470.8 348.2 469.6L353.5 448.7 361.5 456.1 358.9 466.6C358.6 467.7 359.2 468.7 360.3 469S362.5 468.7 362.8 467.5L364.8 459.4 374.8 468.9C375.1 469.4 375.5 469.5 375.9 469.6 376.2 469.7 377.1 469.5 377.7 468.8 378.3 468.1 378.6 467 377.5 466.3ZM333 443.1L323.2 431.2 309 437.1 314.3 422.4 302.2 413.1 317.3 410.3 319.5 395.2 329.3 407.1 343.5 401.2 338.3 415.6 350.3 425.2 335.3 427.6 333 443.1Z" fill="rgba(51, 121, 194, 0.58)"></path><path d="M976 575L969 535.9 975 526.7 999.4 528.7 1004.4 538.7 990.8 576.1C990.8 576.6 990.8 576.6 990.7 577.1 990.6 578.1 991 579.1 992.4 579.6 993.9 579.8 994.9 579.4 995.5 578L1007.3 545.2 1014.7 560.7 1009.7 575.3C1009.7 575.3 1009.6 575.7 1009.6 575.7 1009.5 576.7 1009.9 577.7 1011.3 578.3 1012.3 578.8 1013.8 578 1014.4 576.6L1018 567.3 1023.3 578.8C1023.7 579.8 1025.1 580.4 1026.6 580S1028.2 577.7 1027.9 576.2L1022.5 565.2 1031.9 568.4C1033.3 569 1034.8 568.1 1035.4 566.7 1035.5 565.8 1035.1 564.3 1033.7 563.7L1019.2 558.7 1011.8 542.7 1044.6 554.5C1045.9 555.1 1047.5 554.2 1048 553.3 1048.1 551.9 1047.8 550.4 1046.4 549.8L1008.9 536.7 1004 526.2 1017.6 506.5 1029.1 507.5 1055.1 537.5C1055.9 538.5 1057.4 538.6 1058.4 537.8S1059.6 535.4 1058.7 534.4L1035.8 508 1053.5 509.4 1063.2 520.8C1064 521.8 1065.5 522 1067 521.1S1068.1 518.8 1067.2 517.8L1060.2 510 1073.1 511C1074.5 511.1 1075.6 509.8 1075.7 508.3 1075.8 506.9 1074.9 505.9 1073.5 505.8L1060.6 504.7 1068.3 498.1C1069.9 497.3 1070 495.8 1068.6 494.8 1067.7 493.7 1066.3 493.6 1065.3 494.5L1053.9 504.2 1036.2 502.7 1063 480.3C1064.1 479.5 1064.2 477.6 1063.3 476.5S1061 475.4 1060 476.3L1029.5 502.2 1018 501.3 1007.7 479.3 1014.3 470.2 1053.3 463.2C1054.8 462.8 1055.4 461.4 1055.5 460 1055.2 458.5 1053.8 457.9 1052.3 457.8L1018.1 464.2 1027.9 450.1 1043.1 447.4C1044.5 447.1 1045.1 445.7 1045.2 444.2 1044.8 443.2 1043.5 442.2 1042 442.5L1032.2 444.2 1039.3 433.7C1039.9 432.7 1039.5 431.3 1038.7 430.2 1037.3 429.6 1035.8 430 1035.2 430.9L1028.1 441.4 1026.1 431.1C1025.7 430.2 1024.3 429.1 1023.3 429.5 1021.9 429.4 1021.3 430.3 1021.2 431.7 1021.2 431.7 1021.2 432.2 1021.2 432.2L1023.8 447.3 1014 461.5 1007.6 427.3C1007.2 425.8 1006.4 424.7 1004.9 425.1 1003.4 425.5 1002.8 426.4 1002.8 427.3 1002.7 427.8 1002.7 427.8 1002.7 427.8L1010.1 467.4 1003.6 476.5 979.2 474.6 974.7 464.6 987.9 426.6C988.5 425.7 987.6 424.2 986.7 423.6 985.3 423.1 983.8 423.9 983.2 425.3L971.4 458 964 442.5 969 428C969.6 426.6 969.2 425.1 967.8 425 966.4 424.4 964.9 425.3 964.3 426.2L961.1 436 955.8 424.5C954.9 423.5 953.5 422.9 952.1 423.3 951.5 423.7 951 424.6 950.9 425.6 950.9 426.1 950.9 426.1 951.3 426.6L956.6 438.1 946.8 434.9C945.4 434.3 944.4 435.2 943.8 436.1 943.8 436.6 943.8 436.6 943.7 437 943.6 438 944 439 945 439.5L959.5 444.6 966.9 460.1 934.1 448.3C932.7 448.2 931.2 448.6 931.1 450 930.6 450.4 930.6 450.4 930.6 450.9 930.5 451.9 931.4 452.9 932.3 453.5L970.2 466.6 974.7 476.6 961.1 496.7 950.1 495.8 924.1 465.3C923.2 464.3 921.3 464.1 920.3 465S919.1 467.8 920 468.8L942.9 495.2 925.7 493.9 915.5 482.4C914.6 481.4 913.2 481.3 912.2 482.2 911.1 483.1 911 484.5 911.9 485.5L918.5 493.3 905.6 492.2C904.6 492.2 903.1 493 903 494.4 902.9 495.9 904.2 497.4 905.2 497.5L918.1 498.5 910.3 505.1C909.8 505.6 909.3 506 909.2 506.5 909.2 507.5 909.6 508 910 508.5 910.9 509.5 912.4 509.6 913.4 508.8L925.2 499.1 942.5 500.5 915.6 522.9C915.1 523.3 915.1 523.8 915 524.8 915 525.3 914.9 525.7 915.4 526.3 916.2 527.3 918.2 527.4 919.2 526.6L949.6 501.1 960.7 502 971 523.5 964.9 533.1 925.3 540.1C924.3 540.5 923.3 541.3 923.2 542.3 923.2 542.8 923.2 542.8 923.7 542.8 923.5 544.2 924.9 545.3 926.4 545L960.6 538.6 950.8 553.2 935.6 555.8C934.6 556.2 934.1 557.1 934 558.1 934 558.1 933.9 558.6 933.9 558.6 933.8 560 935.2 561.1 936.7 560.7L946.9 558.7 939.8 569.2C939.3 569.6 939.3 570.1 939.2 570.6 939.2 571.5 939.6 572.5 940 572.5 941.4 573.6 942.9 573.3 943.9 572.4L951 561.9 952.6 571.6C953 573.1 954.4 574.2 955.8 573.8 956.8 573.4 957.9 572.1 957.5 571.1L954.9 555.9 964.7 541.8 971.1 576C971.4 577.5 972.8 578.1 974.3 578.2 975.3 577.8 976.3 576.4 976 575ZM997 523.2L978.3 521.7 975.5 521.5 974.2 519 966.4 502.4 965.2 499.4 966.8 497.2 977.2 482.1 978.8 479.8 981.7 480.1 1000.3 481.6 1003.2 481.8 1004.4 484.3 1012.3 500.8 1013.5 503.3 1011.8 506.1 1001.5 521.1 999.9 523.4 997 523.2Z" fill="rgba(51, 121, 194, 0.58)"></path><path d="M800.9 195.1L817.6 158.9 850.9 146.8 844.8 181.8 812 204.4C812 204.4 811.7 204.7 811.7 204.7 811 205.5 811.2 206.8 811.6 207.8 812.4 209.1 814.1 209.3 815 208.2L843.6 188.3 840.7 205.3 828.2 214.2C828.2 214.2 827.8 214.6 827.8 214.6 827.2 215.3 827.3 216.7 827.8 217.6 828.6 218.9 830.3 219.1 831.2 218L839.9 212.2 837.6 224.6C837.3 225.7 838.5 227.3 839.5 227.5 840.9 228.1 842.2 226.6 842.4 225.6L844.7 213.1 850.6 221.8C851.4 223.1 853.1 223.3 854.1 222.2 855.3 221.4 855.5 219.7 854.4 218.7L845.5 206.2 848.8 189.6 868.7 218.2C869.5 219.5 871.2 219.7 872.1 218.6 873.4 217.8 873.6 216 872.5 215.1L849.9 182.3 856.1 147.4 883.6 170.5 887.1 210.4C887.2 211.8 888.3 212.7 889.7 212.6 891 212.5 892 211.4 891.8 210L888.8 174.9 902 186 903.3 200.9C903.4 202.2 904.5 203.1 905.9 203 907.2 202.9 908.2 201.8 908 200.5L907.2 190.3 917.5 199C918.2 200.3 919.9 199.8 920.8 198.7 921.8 197.6 921.6 196.2 920.5 195.3L911 187.3 921.1 186.4C922.5 186.3 923.4 185.2 923.3 183.8S922.1 181.5 920.7 181.6L905.8 182.9 892.6 171.8 927.8 168.8C929.1 168.6 930.1 167.5 929.9 166.2 929.8 164.8 928.7 163.9 927.4 164L887.5 167.5 860.3 144.6 893.6 132.5 928.8 148.9C930.2 149.5 931.5 148.7 932.4 147.6 933 146.2 932.2 144.9 931.1 143.9L899.5 129.3 915.7 123.5 929.5 130.1C930.9 130.7 932.2 129.9 933.2 128.8 933.7 127.4 932.9 126.1 932.2 125.5L922.6 121.2 934.5 116.7C935.5 116.3 936.7 114.8 935.9 113.5 935.1 112.3 934 111.3 932.7 112.1L920.9 116.6 925.1 107C925.7 105.6 924.9 104.3 924.2 103.7 923.1 103.4 921.8 103.5 921.2 104.3 921.2 104.3 920.8 104.6 920.8 104.6L914.2 118.5 898 124.3 912.7 92.7C913.2 91.3 912.4 90 911.7 89.4 910.6 89.2 909.3 89.3 908.7 90 908.7 90 908.4 90.4 908.4 90.4L891.8 126.6 858.4 138.7 864.6 103.7 897.3 81.1C898.6 80.3 898.8 78.6 897.7 77.7 896.9 76.4 895.2 76.2 894.3 77.3L865.7 97.2 868.6 80.2 881.2 71.3C882.5 70.5 882.6 68.8 881.5 67.8 880.7 66.5 879 66.4 878.1 67.5L869.4 73.3 871.7 60.9C872 59.8 870.8 58.2 869.8 58 868.7 57.7 867.8 58.1 867.1 58.9 866.8 59.2 866.5 59.6 866.6 60.3L864.3 72.8 858.4 64.1C857.6 62.8 855.9 62.6 854.9 63.7 854.9 63.7 854.6 64 854.6 64 854 64.8 854.1 66.1 854.6 67.1L863.5 79.6 860.5 96.6 840.7 68C839.9 66.7 838.2 66.5 837.2 67.6 837.2 67.6 836.9 68 836.9 68 836.3 68.7 836.4 70.1 836.8 71L859.5 103.8 853.3 138.8 826.1 115.9 822.6 76C822.5 74.7 821.4 73.7 820.1 73.9 818.7 74 817.8 75.1 817.9 76.4L820.6 111.3 807.4 100.2 806.1 85.3C805.9 83.9 804.8 83 803.5 83.1S801.2 84.4 801.3 85.7L802.2 95.9 792.7 87.8C791.6 86.9 790.2 87 789.3 88.1 788.3 89.2 788.5 90.6 789.6 91.5L799.1 99.5 789 100.4C788.3 100.5 787.6 100.5 787 101.3S786.4 102.7 786.5 103.3C786.6 104.7 787.7 105.6 789.1 105.5L804 104.2 817.2 115.3 782 118.4C781.3 118.4 780.7 118.5 780 119.2 779.7 119.6 779.5 120.6 779.5 121.3 779.7 122.7 780.8 123.6 782.1 123.5L822 120 849.2 142.9 815.9 155 779.7 138.3C778.6 138.1 777.3 138.2 776.7 139 776.7 139 776.3 139.3 776.3 139.3 775.8 140.7 776.6 142 777.3 142.6L808.9 157.3 792.7 163.1 778.9 156.5C777.8 156.2 776.5 156.3 775.8 157.1 775.8 157.1 775.5 157.4 775.5 157.4 775 158.9 775.8 160.2 776.5 160.8L786.1 165 774.2 169.5C773.9 169.9 773.2 169.9 772.9 170.3 772.3 171 772 172.1 772.5 173 773.2 174.3 774.4 175.3 775.6 174.5L787.5 170 783.2 179.6C782.7 181 783.5 182.3 784.2 182.9 785.6 183.5 786.9 182.7 787.5 182L794.2 168.1 810.4 162.3 795.7 193.9C795.2 195.3 796 196.6 796.7 197.2 798.7 197 800.4 196.5 800.9 195.1Z" fill="rgba(51, 121, 194, 0.58)"></path><path d="M241.9 129.9L209.5 136.6 201.7 131.8 202.8 111.4 211 107 242.5 117.5C242.9 117.5 242.9 117.5 243.3 117.5 244.1 117.6 244.9 117.2 245.4 116 245.5 114.8 245.1 114 243.9 113.6L216.4 104.5 229.1 98 241.3 101.8C241.3 101.8 241.7 101.8 241.7 101.8 242.5 101.9 243.4 101.5 243.8 100.3 244.3 99.6 243.5 98.3 242.3 97.9L234.5 95 243.9 90.3C244.8 90 245.2 88.8 244.9 87.6S243 86.3 241.7 86.6L232.7 91.3 235.1 83.5C235.6 82.3 234.8 81 233.6 80.6 232.8 80.5 231.6 80.9 231.2 82L227.3 94.3 214.1 100.8 223.2 73.2C223.7 72 222.9 70.8 222.2 70.4 221 70.3 219.7 70.6 219.3 71.8L209.2 103.3 200.6 107.7 183.9 96.8 184.4 87.2 208.8 64.8C209.7 64.1 209.7 62.9 209 62.1S207 61.1 206.2 61.9L184.7 81.6 185.5 66.8 194.7 58.5C195.6 57.7 195.7 56.5 194.9 55.3S193 54.4 192.1 55.2L185.8 61.2 186.4 50.4C186.4 49.2 185.3 48.4 184.1 48.3 182.9 48.3 182 49 182 50.2L181.4 61 175.7 54.7C175 53.4 173.8 53.4 172.9 54.5 172.1 55.3 172 56.5 172.8 57.3L181.1 66.6 180.3 81.4 161 59.5C160.3 58.7 158.7 58.6 157.9 59.4S156.9 61.3 157.7 62.1L180 87 179.5 96.5 161.4 105.6 153.7 100.4 147 68C146.6 66.8 145.5 66.3 144.3 66.2 143.1 66.6 142.6 67.8 142.5 69L148.6 97.3 136.6 89.5 134.1 76.9C133.8 75.7 132.6 75.2 131.4 75.2 130.6 75.5 129.7 76.7 130 77.9L131.6 86 122.7 80.3C121.9 79.9 120.7 80.2 119.9 81 119.4 82.2 119.7 83.4 120.5 83.8L129.4 89.5 120.9 91.5C120.1 91.8 119.2 93 119.6 93.8 119.5 95 120.3 95.4 121.5 95.5 121.5 95.5 121.9 95.5 121.9 95.5L134.4 93 146.5 100.8 118.1 106.9C116.9 107.3 116 108 116.4 109.2 116.7 110.5 117.5 110.9 118.3 110.9 118.7 111 118.7 111 118.7 111L151.5 103.9 159.2 109.1 158.2 129.5 149.9 133.4 118 123.3C117.2 122.9 116 123.6 115.6 124.4 115.1 125.6 115.8 126.8 117 127.3L144.6 136.4 131.8 142.9 119.6 139C118.4 138.6 117.2 138.9 117.1 140.1 116.7 141.3 117.4 142.5 118.2 143L126.5 145.4 117 150.1C116.2 150.9 115.7 152.1 116 153.3 116.4 153.7 117.2 154.1 118 154.2 118.4 154.2 118.4 154.2 118.8 153.8L128.3 149.1 125.8 157.4C125.4 158.6 126.1 159.4 126.9 159.9 127.3 159.9 127.3 159.9 127.7 159.9 128.5 159.9 129.3 159.6 129.8 158.8L133.6 146.6 146.4 140.1 137.3 167.6C137.3 168.8 137.6 170 138.8 170.1 139.2 170.5 139.2 170.5 139.6 170.5 140.4 170.6 141.2 169.8 141.7 169.1L151.7 137.1 160 133.2 177 144.1 176.5 153.3 151.7 175.6C150.9 176.3 150.8 177.9 151.6 178.8S153.9 179.7 154.7 179L176.2 159.3 175.5 173.6 166.2 182.4C165.3 183.1 165.3 184.3 166 185.2 166.8 186 168 186.1 168.8 185.3L175.1 179.6 174.6 190.4C174.5 191.2 175.3 192.5 176.5 192.5 177.7 192.6 178.9 191.4 179 190.6L179.5 179.9 185.2 186.2C185.6 186.6 186 187 186.4 187 187.2 187.1 187.6 186.7 188 186.3 188.8 185.6 188.9 184.4 188.2 183.5L179.9 173.9 180.6 159.5 199.9 181.3C200.3 181.8 200.7 181.8 201.5 181.8 201.9 181.8 202.3 181.9 202.7 181.5 203.5 180.7 203.6 179.1 202.8 178.3L180.9 153.5 181.4 144.3 199.1 135.2 207.3 140.1 214 172.9C214.3 173.7 215.1 174.5 215.9 174.6 216.3 174.6 216.3 174.6 216.3 174.2 217.5 174.3 218.3 173.1 218 171.9L211.9 143.5 224.3 151.4 226.8 163.9C227.2 164.8 228 165.2 228.8 165.2 228.8 165.2 229.2 165.3 229.2 165.3 230.4 165.3 231.2 164.2 230.9 162.9L228.9 154.4 237.9 160.1C238.2 160.5 238.6 160.5 239 160.6 239.8 160.6 240.7 160.3 240.7 159.9 241.5 158.7 241.2 157.5 240.4 156.6L231.5 151 239.6 149.4C240.8 149 241.7 147.9 241.4 146.7 241 145.9 239.9 145 239 145.3L226.5 147.9 214.5 140 242.8 133.9C244.1 133.6 244.5 132.4 244.6 131.2 244.2 130.4 243.1 129.5 241.9 129.9ZM198.3 113.6L197.4 129.1 197.3 131.5 195.2 132.6 181.7 139.5 179.2 140.6 177.3 139.3 164.5 131 162.6 129.7 162.7 127.3 163.5 111.7 163.6 109.3 165.7 108.2 179.3 101.3 181.3 100.2 183.7 101.6 196.4 109.9 198.4 111.2 198.3 113.6Z" fill="rgba(51, 121, 194, 0.58)"></path><path d="M1035.7 220.2L1027.9 194.8 1039.1 174 1051.6 194.1 1045.3 219.9C1045.3 219.9 1045.3 220.2 1045.3 220.2 1045.3 220.9 1046 221.5 1046.6 221.8 1047.6 222.1 1048.5 221.4 1048.5 220.5L1053.9 197.9 1060 207.7 1057.7 217.6C1057.7 217.6 1057.7 218 1057.7 218 1057.7 218.6 1058.4 219.2 1059 219.5 1060 219.8 1060.9 219.1 1060.9 218.2L1062.6 211.4 1067 218.7C1067.3 219.3 1068.6 219.6 1069.3 219.2 1070.2 218.9 1070.2 217.6 1069.8 217L1065.5 209.7 1072.2 211.5C1073.2 211.8 1074.1 211.1 1074.1 210.1 1074.4 209.2 1073.7 208.2 1072.8 208.2L1062.8 206 1057.1 196.2 1079.6 201.6C1080.6 201.9 1081.5 201.3 1081.5 200.3 1081.8 199.3 1081.1 198.4 1080.2 198.4L1054.4 192.1 1042 172 1066 171.3 1085.4 189.6C1086 190.3 1087 190.2 1087.6 189.6 1088.2 188.9 1088.2 187.9 1087.5 187.3L1070.4 171.2 1081.9 170.8 1089.2 177.7C1089.8 178.3 1090.8 178.3 1091.4 177.6 1092 177 1092 176 1091.4 175.4L1086.4 170.7 1095.4 170.5C1096.3 170.7 1097 169.8 1096.9 168.8 1096.9 167.8 1096.2 167.2 1095.3 167.3L1087 167.5 1091.6 162.6C1092.3 161.9 1092.2 160.9 1091.6 160.3S1089.9 159.7 1089.3 160.4L1082.5 167.6 1071 168 1087.1 150.8C1087.7 150.2 1087.7 149.2 1087.1 148.6 1086.4 148 1085.4 148 1084.8 148.7L1066.5 168.1 1042.8 168.8 1054.1 148 1078.8 140.5C1079.8 140.2 1080.1 139.2 1080 138.2 1079.7 137.3 1078.7 137 1077.8 137L1055.6 143.8 1061 133.7 1070.9 130.8C1071.8 130.5 1072.1 129.5 1072.1 128.5 1071.7 127.6 1070.8 127.3 1070.1 127.3L1063.5 129.4 1067.4 122C1067.7 121.3 1067.7 120 1066.7 119.7 1065.7 119.4 1064.8 119.5 1064.5 120.4L1060.5 127.9 1058.4 121.3C1058.1 120.3 1057.1 120 1056.5 120 1055.8 120.4 1055.2 121 1055.2 121.7 1055.2 121.7 1055.2 122 1055.2 122L1058.1 131.8 1052.6 141.9 1045.9 119.7C1045.5 118.8 1044.6 118.5 1043.9 118.5 1043.3 118.8 1042.7 119.5 1042.7 120.1 1042.7 120.1 1042.7 120.4 1042.7 120.4L1050.5 145.8 1039.2 166.6 1026.8 146.5 1033.1 120.7C1033.4 119.7 1032.7 118.8 1031.8 118.8 1030.8 118.5 1029.9 119.2 1029.9 120.2L1024.5 142.7 1018.4 133 1020.7 123C1021 122 1020.3 121.1 1019.4 121.1 1018.4 120.8 1017.4 121.5 1017.5 122.4L1015.8 129.2 1011.4 122C1011 121.4 1009.8 121.1 1009.1 121.4 1008.5 121.7 1008.2 122.4 1008.2 123 1008.2 123.4 1008.2 123.7 1008.6 124L1012.9 131.2 1006.2 129.5C1005.2 129.2 1004.2 129.9 1004.3 130.8 1004.3 130.8 1004.3 131.2 1004.3 131.2 1004.3 131.8 1005 132.4 1005.6 132.7L1015.6 135 1021.6 144.7 999.1 139.3C998.1 139 997.2 139.7 997.2 140.6 997.2 140.6 997.2 141 997.2 141 997.2 141.6 997.9 142.2 998.5 142.5L1024.3 148.8 1036.8 168.9 1013.1 169.6 993.7 151.3C993 150.7 992 150.7 991.4 151.4 990.8 152 990.8 153 991.5 153.6L1008.3 169.8 996.8 170.1 989.5 163.3C988.9 162.7 987.9 162.7 987.3 163.3S986.7 165 987.4 165.6L992.3 170.2 984 170.5C983 170.5 982.4 171.2 982.4 172.1 982.4 173.1 983.1 173.7 984.1 173.7L992.4 173.4 987.7 178.4C987.4 178.7 987.1 179 987.1 179.7S987.5 180.6 987.8 180.9C988.5 181.6 989.4 181.5 990 180.9L996.9 173.6 1008.4 173.3 992.2 190.4C991.9 190.7 991.6 191.1 991.6 191.7 991.6 192 992 192.7 992.3 193 993 193.6 993.9 193.6 994.5 192.9L1012.9 173.5 1036.5 172.8 1025.3 193.6 999.9 201.4C999.3 201.7 998.7 202.4 998.7 203 998.7 203 998.7 203.3 998.7 203.3 999 204.3 1000 204.6 1000.6 204.6L1022.9 197.8 1017.4 207.9 1007.6 210.8C1006.9 211.1 1006.3 211.8 1006.3 212.4 1006.3 212.4 1006.3 212.7 1006.3 212.7 1006.7 213.7 1007.6 214 1008.3 214L1014.9 211.8 1011 219.3C1011 219.6 1010.7 220 1010.7 220.3 1010.7 220.9 1011.1 221.6 1011.7 221.9 1012.7 222.1 1013.6 222.1 1013.9 221.2L1017.9 213.7 1020 220.3C1020.3 221.3 1021.3 221.6 1021.9 221.6 1022.9 221.2 1023.2 220.2 1023.2 219.6L1020.3 209.8 1025.8 199.7 1032.5 221.9C1032.9 222.8 1033.8 223.1 1034.5 223.1 1035.4 222.1 1036 221.2 1035.7 220.2Z" fill="rgba(51, 121, 194, 0.58)"></path><path d="M182.5 295.1L161.5 309.7 152.3 307.8 159.4 302.9C160.4 302.6 160.3 301.6 160 300.7 159.5 300.2 158.4 299.9 157.9 300.4L148 307 138.9 305.4 145 298.5 156.9 297.7C156.9 297.7 157.2 297.6 157.2 297.6 157.8 297.4 158.2 296.6 158.3 295.9 158 295 157.5 294.5 156.5 294.5L147.9 295.1 153.9 288.2 179.3 286.1C179.3 286.1 179.7 286.3 179.7 286.3 180.3 286.1 180.7 285.3 180.8 284.5 180.8 283.5 179.8 282.8 178.9 283.2L156.8 284.9 163.9 276.2 173.9 275.5C173.9 275.5 173.9 275.5 174.2 275.4 174.8 275.1 175.3 274.6 175.3 273.9 175 273 174.4 272.2 173.4 272.2L166.8 272.8 172.1 266.6C172.9 266 172.6 265.1 172 264.6 171.4 263.8 170.4 263.8 169.7 264.7L164.4 270.7 164.1 264.3C163.8 263.4 163.2 262.6 162.3 262.9 161.3 262.9 160.8 263.4 160.8 264.4L161.6 274.4 154.3 282.7 152.5 260.2C152.6 259.5 151.7 258.8 150.7 258.9 150.1 259.1 149.3 259.7 149.3 260.7L151.5 286.1 145.4 293 144.8 284.4C144.7 283.3 143.9 283 142.9 283 142.2 282.9 141.5 283.8 141.4 284.5L142.5 296.3 136.6 303.5 133.5 294.8 138.6 284.2C139 283.3 138.6 282.4 137.8 282 137.3 281.6 136.1 282 135.7 282.8L132 290.5 128.9 281.8 140.2 258.8C140.6 258 140.2 257.1 139.4 256.7 138.6 256.3 137.7 256.6 137.3 257.5L127.4 277.6 123.8 267.3 128.1 258.3C128.5 257.5 128.2 256.6 127.4 256.2 126.6 255.8 125.6 256.1 125.3 257L122.2 262.8 119.6 255.2C119.2 254.3 118.4 253.9 117.5 254.3 116.6 254.6 116.2 255.4 116.5 256.3L119.2 263.8 113.5 261.1C112.7 260.7 111.8 261 111.4 261.9S111.3 263.6 112.1 264L120.7 268.1 124.4 278.6 104.4 269.1C103.6 268.7 102.7 269 102.3 269.8 101.9 270.6 102.2 271.5 103 271.9L125.9 282.9 129 291.6 121.2 287.9C120.4 287.5 119.5 287.8 119.1 288.6 118.7 289.5 119 290.4 119.9 290.8L130.5 295.8 133.5 304.3 124.7 302.6 117.9 292.8C117.4 292.3 116.2 292 115.7 292.5 114.9 293.2 114.9 293.9 115.2 294.8L120.1 301.9 111.3 300.2 96.8 279.2C96.2 278.4 95.5 278.3 94.6 278.6 93.8 279.3 93.8 280.3 94 280.9L106.7 299.5 95.7 297.2 90.2 289.3C89.9 288.4 88.9 288.5 88 288.8 87.5 289.3 87.2 290.4 87.8 291.2L91.3 296.4 83.4 295.1C82.6 294.7 81.8 295.4 81.5 296.5 81.4 297.2 82 298 82.7 298.1L90.8 299.7 85.3 303.3C84.5 303.9 84.5 304.9 85 305.4 85.3 306.3 86 306.4 86.6 306.2 86.9 306.1 86.9 306.1 87.2 306L95.1 300.5 106.1 302.7 87.8 315.3C86.9 315.6 86.9 316.6 87.2 317.5 87.7 318 88.5 318.1 89.1 317.9 89.4 317.8 89.4 317.8 89.4 317.8L110.8 303.5 119.5 305.1 112.4 310C111.6 310.6 111.5 311.3 111.8 312.3 112.3 312.7 113.2 313.1 113.8 312.9 114.1 312.8 114.1 312.8 114.4 312.7L124.2 305.9 132.9 307.5 127.2 314.3 115.3 315.4C114.3 315.4 113.6 316.4 113.5 317.1 113.9 318 114.5 318.8 115.4 318.5L124 317.8 118.3 324.9 92.6 326.9C91.8 326.8 91.2 327.7 91.1 328.4 91.4 329.3 92 330.1 93 330.1L115.1 328.4 107.9 336.7 98.3 337.4C97.3 337.4 96.6 338.3 96.9 339.2 96.8 339.9 97.4 340.7 98.5 340.7L105 340.1 99.8 346.4C99.3 346.9 99.3 347.9 99.9 348.7 100.3 348.9 101 349 101.6 348.8 101.6 348.8 101.9 348.7 102.2 348.5L107.5 342.3 108.1 348.9C108 349.6 108.9 350.3 109.7 350.3 110 350.2 110 350.2 110 350.2 110.9 349.9 111.3 349.1 111 348.5L110.4 338.9 117.5 330.3 119.3 352.7C119.6 353.6 120.1 354.1 121.2 354.1 121.2 354.1 121.5 354 121.5 354 122.1 353.8 122.6 353.3 122.5 352.2L120.7 326.8 126.4 320 127.1 328.6C127.4 329.5 128 330.3 128.9 330 129 330.3 129.3 330.2 129.3 330.2 130 330 130.3 329.1 130.4 328.4L129.3 316.6 135.4 309.7 138.4 318.2 133.3 328.8C132.9 329.6 133.3 330.8 134.1 331.2 134.8 331.3 135.7 331 136.2 330.5L139.8 322.4 142.9 331.1 132 354C131.6 354.8 131.9 355.7 132.7 356.1 133.5 356.5 134.5 356.2 134.8 355.4L144.4 335.4 148.1 345.9 144 354.5C143.6 355.3 144 356.2 144.8 356.6S146.5 356.7 146.9 355.9L149.6 350.2 152.3 357.7C152.6 358.6 153.4 359 154.3 358.7 155.2 358.4 155.6 357.5 155.3 356.6L152.6 349.1 158.7 351.7C159.1 351.9 159.5 352.1 159.8 352 160.1 351.9 160.6 351.4 160.8 351 161.2 350.2 160.8 349.3 160 348.9L151.2 344.9 147.4 334.3 167.7 343.8C168.1 344 168.6 344.2 168.9 344.1 169.2 344 169.7 343.4 169.9 343 170.2 342.2 169.9 341.3 169.1 340.9L145.9 330.1 142.9 321.3 150.7 325.3C151.1 325.5 151.7 325.3 152 325.2 152.3 325.1 152.6 325 152.8 324.6 153.2 323.8 152.8 322.6 152.1 322.5L141.4 317.1 138.4 308.7 147.4 310.2 154 320.1C154.5 320.6 155.3 321 155.9 320.8 156.2 320.7 156.2 320.7 156.1 320.4 157 320.1 157.3 319 156.7 318.2L151.8 311.1 160.8 312.6 175.2 334C175.7 334.5 176.4 334.6 177 334.4 177.3 334.3 177.3 334.3 177.3 334.3 178.1 333.7 178.5 332.9 177.9 332.1L165.2 313.5 176.2 315.7 181.7 323.6C182.3 324.4 183 324.5 183.6 324.3 183.6 324.3 183.9 324.2 183.9 324.2 184.7 323.5 184.7 322.5 184.5 321.9L180.5 316.5 188.6 318.1C188.9 318 189.2 317.9 189.5 317.8 189.8 317.7 190.3 317.2 190.5 316.8 190.4 315.8 190.1 314.9 189.1 314.9L181.1 313.3 186.6 309.7C187.4 309 187.4 308 187.2 307.4 186.5 306.6 185.5 306.6 184.6 307L176.7 312.5 165.9 310.5 184.2 298C185 297.3 185.2 296.2 184.7 295.7 184.1 294.9 183.3 294.5 182.5 295.1Z" fill="rgba(51, 121, 194, 0.58)"></path></g><defs><mask id="SvgjsMask1000"><rect width="1440" height="560" fill="#ffffff"></rect></mask><filter id="SvgjsFilter1001"><feGaussianBlur stdDeviation="1"></feGaussianBlur></filter></defs></svg>